<?xml version="1.0" encoding="utf-8"?>
<!-- Generator: Adobe Illustrator 25.2.1, SVG Export Plug-In . SVG Version: 6.00 Build 0)  -->
<svg version="1.1" id="Layer_1" xmlns="http://www.w3.org/2000/svg" xmlns:xlink="http://www.w3.org/1999/xlink" x="0px" y="0px"
	 viewBox="0 0 549.6 97" style="enable-background:new 0 0 549.6 97;" xml:space="preserve">
<style type="text/css">
	.st0{fill:#282931;}
</style>
<path class="st0" d="M266.2,89.5l-5.7-11.3L284,18.4c2.8-5.9,7.3-9.6,12-10c3-0.3,5.6,1,7.2,3.2c1.8,2.6,1.8,6.3-0.1,10.6
	l-29.4,67.3c-0.7,1.4-2.1,2.2-3.7,2.2C268.4,91.5,267,90.7,266.2,89.5 M238.6,78.6l-31.9-61.5c-1.9-3.7-1.2-6.7,1.8-8.4
	c1.2-0.7,3-1.1,5-1.1c4.4,0,9.8,2.2,12.7,7.4l32.2,63.3c-1.8,3.6-5.2,5.9-9.4,6.1c-0.2,0-0.5,0-0.7,0
	C244.1,84.4,240.6,82.3,238.6,78.6 M207.6,7c-3.2,1.8-5.5,5.5-2.6,11l31.9,61.5c2.5,4.7,7,7.3,12.2,7c4.3-0.3,8.1-2.5,10.3-6.1l5,10
	c1.1,1.9,3.2,3.2,5.5,3.2c2.5,0,4.4-1.2,5.5-3.3l29.4-67.4c2.2-4.8,2.2-9.4,0-12.7c-1.9-2.8-5.2-4.1-8.9-3.9
	c-5.5,0.4-10.5,4.5-13.6,11.1v0.1l-23,58.2l-31.4-61.8c-3.3-6-9.4-8.5-14.5-8.5C211.2,5.7,209.2,6.1,207.6,7 M414.6,89.5L409,78.2
	l23.5-59.8c2.8-5.9,7.3-9.6,12-10c3-0.3,5.6,1,7.2,3.2c1.8,2.6,1.8,6.3-0.1,10.6l-29.4,67.3c-0.7,1.4-2.1,2.2-3.7,2.2
	C416.8,91.5,415.4,90.7,414.6,89.5 M387,78.6l-31.9-61.5c-1.9-3.7-1.2-6.7,1.8-8.4c1.2-0.7,3-1.1,5-1.1c4.4,0,9.8,2.2,12.7,7.4
	l32.2,63.3c-1.8,3.6-5.2,5.9-9.4,6.1c-0.2,0-0.5,0-0.7,0C392.5,84.4,389,82.3,387,78.6 M356,7c-3.2,1.8-5.5,5.5-2.6,11l31.9,61.5
	c2.5,4.7,7,7.3,12.2,7c4.3-0.3,8.1-2.5,10.3-6.1l5,10c1.1,1.9,3.2,3.2,5.5,3.2c2.5,0,4.4-1.2,5.5-3.3l29.4-67.4
	c2.2-4.8,2.2-9.4,0-12.7c-1.9-2.8-5.2-4.1-8.9-3.9c-5.5,0.4-10.5,4.5-13.6,11.1v0.1l-23,58.2l-31.4-61.8c-3.3-6-9.4-8.5-14.5-8.5
	C359.6,5.7,357.6,6.1,356,7 M321.6,58.1V22.9c0-11.3,6.1-16.4,10.5-16.4c3,0,4.9,2.2,4.9,5.8v58.6c0,12.2-10.6,18-15.4,20.1V58.1z
	 M319.5,22.9v35.2v34.2v1.5l1.4-0.5c4.1-1.4,18-7.4,18-22.4V12.3c0-5.4-3.4-7.8-6.9-7.8C326,4.5,319.5,10.9,319.5,22.9 M78,84.5
	c-1.9-2.3-12.7-17.7-15.7-22.1l4-1.4c3.7-1.4,9.1-4.5,11.7-11.1l0.3,0.3c14.4,21,22.7,31.4,22.8,31.5c0.8,1.1,0.8,2.2,0.3,3.4
	c-1.2,2.8-5.5,5.1-10,5.5c-0.4,0-0.9,0.1-1.3,0.1C85.1,90.6,80.8,88.5,78,84.5 M5.5,26.9c0-4.8,3.6-8.8,8.1-8.8h8.2v26.1l0.4,20.1
	c0.1,9.8,0.3,13.9-0.3,15c-3.2,6.9-10.7,9.8-16.5,11.3L5.5,26.9L5.5,26.9z M23.9,14.5C23.9,9.8,27.6,6,32,6h25
	c12.5,0,28.2-0.1,33.3,15c2.2,6.6,1.9,12.7-1,17.9c-3.6,6.6-9.8,9.5-10.6,9.8h-0.4c1-2.9,1.4-6.5,1-10.7
	c-1.8-20.6-25.1-21.5-32.8-22H23.9V14.5z M21.9,14.5V16h-8.2C8.1,16,3.5,20.8,3.5,26.9v66.3l1.2-0.3C11,91.4,20.1,88.4,24,80.1
	c0.7-1.5,0.6-4.5,0.4-15.8c-0.1-5-0.3-11.6-0.4-20.1V18.1h22.5c8,0.4,29.2,1.2,30.8,20.1c1.4,13.8-6.9,19-11.8,20.9
	c-1.5,0.6-4.1,1.5-5.1,1.6l-1.5,0.5l0.8,1.2C60.2,63.2,74,83,76.3,85.8c3.4,5,8.9,7.3,15.1,6.9c5.4-0.5,10.3-3.3,11.8-6.7
	c0.8-1.8,0.7-3.9-0.5-5.6c-0.1,0-8.1-10-22.1-30.3c2.3-1.1,7.2-4.1,10.3-9.5c3.4-5.9,3.9-12.7,1.4-20.2C86.7,3.9,69.6,3.9,57.1,4
	l-25-0.1C26.4,3.8,21.9,8.6,21.9,14.5 M133.7,88.2c-1.8-1.9-2.8-4.4-2.8-7.2H181c8.4,0,11.6,4,11.6,6.5c0,1-0.4,1.8-1.2,2.5
	s-2.3,1.1-4,1.1h-47.2C137.7,91.1,135.4,90.2,133.7,88.2 M116.5,76.6c-1.9-2.2-2.3-5.1-2.3-6.3V49.9h14.7v29.2h-6.5
	C120.8,78.9,118.3,78.5,116.5,76.6 M131,37.8h50.1c1.7,0,3,0.4,3.9,1.1c0.8,0.7,1.1,1.5,1.1,2.5c0,2.8-3,6.5-9.9,6.5h-45.1V37.8H131
	z M114.2,26.8c0.1-1.2,0.4-4.1,2.3-6.3c1.8-1.9,4.3-2.3,5.8-2.5h6.6v29.8h-14.7L114.2,26.8L114.2,26.8z M133.7,8.7
	c1.7-1.8,4-2.9,6.5-2.9h47.2c3.2,0,5.2,1.4,5.2,3.6c0,2.5-3.2,6.5-11.6,6.5h-50.1C131,13.1,131.9,10.7,133.7,8.7 M140.2,3.8
	c-3,0-5.9,1.2-8,3.6c-2.2,2.2-3.3,5.2-3.3,8.5h-6.7c-3.2,0.3-5.5,1.4-7.2,3.2c-1.9,2.2-2.6,4.8-2.8,6.5l-0.1,28.1v16.8
	c0.1,1.4,0.4,5,2.9,7.6c1.6,1.8,4,2.9,7.3,3.2h6.6c0,3.3,1.1,6.3,3.3,8.5c2.1,2.3,5,3.6,8,3.6h47.2c5.1,0,7.3-2.9,7.3-5.6
	c0-2.2-1.2-4.3-3.6-5.9c-2.5-1.6-5.9-2.6-10-2.6H131V49.9h45.1c7.8,0,12-4.4,12-8.5c0-1.5-0.5-3-1.8-4c-1.2-1.1-3.2-1.6-5.2-1.6H131
	V18h50.1c8.9,0,13.6-4.3,13.6-8.5c0-2.8-2.2-5.6-7.3-5.6h-47.2V3.8z M484.7,88.2c-1.8-1.9-2.8-4.4-2.8-7.2H532
	c8.4,0,11.6,4,11.6,6.5c0,1-0.4,1.8-1.2,2.5s-2.3,1.1-4,1.1h-47.2C488.7,91.1,486.4,90.2,484.7,88.2 M467.5,76.6
	c-1.9-2.2-2.3-5.1-2.3-6.3V49.9h14.7v29.2h-6.5C471.8,78.9,469.3,78.5,467.5,76.6 M482,37.8h50.1c1.7,0,3,0.4,3.9,1.1
	c0.8,0.7,1.1,1.5,1.1,2.5c0,2.8-3,6.5-9.9,6.5h-45.1L482,37.8L482,37.8z M465.2,26.8c0.1-1.2,0.4-4.1,2.3-6.3
	c1.8-1.9,4.3-2.3,5.8-2.5h6.6v29.8h-14.7L465.2,26.8L465.2,26.8z M484.7,8.7c1.7-1.8,4-2.9,6.5-2.9h47.2c3.2,0,5.2,1.4,5.2,3.6
	c0,2.5-3.2,6.5-11.6,6.5h-50.1C482,13.1,482.9,10.7,484.7,8.7 M491.2,3.8c-3,0-5.9,1.2-8,3.6c-2.2,2.2-3.3,5.2-3.3,8.5h-6.7
	c-3.2,0.3-5.5,1.4-7.2,3.2c-1.9,2.2-2.6,4.8-2.8,6.5l-0.1,28.1v16.8c0.1,1.4,0.4,5,2.9,7.6c1.7,1.8,4,2.9,7.3,3.2h6.6
	c0,3.3,1.1,6.3,3.3,8.5c2.1,2.3,5,3.6,8,3.6h47.2c5.1,0,7.3-2.9,7.3-5.6c0-2.2-1.2-4.3-3.6-5.9c-2.5-1.6-5.9-2.6-10-2.6H482V49.9
	h45.1c7.8,0,12-4.4,12-8.5c0-1.5-0.5-3-1.8-4c-1.2-1.1-3.2-1.6-5.2-1.6H482V18h50.1c8.9,0,13.6-4.3,13.6-8.5c0-2.8-2.2-5.6-7.3-5.6
	h-47.2V3.8z"/>
</svg>
